<svg id="Layer_1" data-name="Layer 1" xmlns="http://www.w3.org/2000/svg" xmlns:xlink="http://www.w3.org/1999/xlink" viewBox="0 0 24 24"><defs><style>.cls-1{fill:none;}.cls-2{fill:#fff;}.cls-3{fill:#0098d0;}.cls-4{fill:url(#radial-gradient);}.cls-5{fill:url(#radial-gradient-2);}.cls-6{fill:url(#radial-gradient-3);}.cls-7{fill:url(#radial-gradient-4);}.cls-8{fill:url(#radial-gradient-5);}.cls-9{fill:url(#radial-gradient-6);}.cls-10{fill:url(#radial-gradient-7);}.cls-11{fill:url(#radial-gradient-8);}.cls-12{fill:url(#radial-gradient-9);}.cls-13{fill:url(#radial-gradient-10);}</style><radialGradient id="radial-gradient" cx="5.43" cy="16403.07" r="21.6" gradientTransform="matrix(1, 0, 0, -1, 0, 16408)" gradientUnits="userSpaceOnUse"><stop offset="0" stop-color="#00b1e7"/><stop offset="0.43" stop-color="#0098cd"/><stop offset="0.52" stop-color="#008dbe"/><stop offset="0.84" stop-color="#006c91"/><stop offset="1" stop-color="#005f80"/></radialGradient><radialGradient id="radial-gradient-2" cx="5.43" cy="16403.07" r="21.6" xlink:href="#radial-gradient"/><radialGradient id="radial-gradient-3" cx="5.43" cy="16403.07" r="21.6" xlink:href="#radial-gradient"/><radialGradient id="radial-gradient-4" cx="5.43" cy="16403.07" r="21.6" xlink:href="#radial-gradient"/><radialGradient id="radial-gradient-5" cx="5.43" cy="16403.07" r="21.6" xlink:href="#radial-gradient"/><radialGradient id="radial-gradient-6" cx="5.43" cy="16403.07" r="21.6" xlink:href="#radial-gradient"/><radialGradient id="radial-gradient-7" cx="5.43" cy="16403.07" r="21.6" xlink:href="#radial-gradient"/><radialGradient id="radial-gradient-8" cx="5.43" cy="16403.07" r="21.6" xlink:href="#radial-gradient"/><radialGradient id="radial-gradient-9" cx="5.43" cy="16403.07" r="21.6" xlink:href="#radial-gradient"/><radialGradient id="radial-gradient-10" cx="5.43" cy="16403.07" r="21.6" xlink:href="#radial-gradient"/><symbol id="card-american-express" data-name="card-american-express" viewBox="0 0 24 24"><rect class="cls-1" width="24" height="24"/><rect class="cls-2" x="0.5" y="4.5" width="23" height="15" rx="1.5" ry="1.5"/><path class="cls-3" d="M22,5a1,1,0,0,1,1,1V18a1,1,0,0,1-1,1H2a1,1,0,0,1-1-1V6A1,1,0,0,1,2,5H22m0-1H2A2,2,0,0,0,0,6V18a2,2,0,0,0,2,2H22a2,2,0,0,0,2-2V6a2,2,0,0,0-2-2Z"/><path id="SVGID" class="cls-4" d="M12.28,11.31v-.42a.36.36,0,0,0-.37-.34h-.54v.76h-.56V9.12h1.35a.62.62,0,0,1,.71.64.58.58,0,0,1-.32.52.52.52,0,0,1,.28.49v.54h-.55M11.37,10h.57c.17,0,.31-.1.31-.21s-.14-.21-.31-.21h-.57V10h0"/><path id="SVGID-2" data-name="SVGID" class="cls-5" d="M18.85,11.31,18,9.85v1.46H16.88l-.2-.46h-1l-.19.46H14.6a.94.94,0,0,1-.75-1c0-1.22.85-1.17.88-1.18l.68,0v.49h-.56s-.37,0-.41.48a.86.86,0,0,0,0,.15.47.47,0,0,0,.66.51l.69-1.64h.78l.84,2v-2h.79l.87,1.44V9.12h.56v2.19h-.77m-3-1h.54l-.27-.65-.27.65h0"/><path id="SVGID-3" data-name="SVGID" class="cls-6" d="M7.91,11.31V9.8l-.7,1.51H6.76l-.71-1.5v1.5H5l-.2-.46h-1l-.2.46H2.94l.92-2.19h.79l.84,2v-2h.88L7,10.48,7.6,9.12h.88v2.19H7.91M4,10.29h.55l-.28-.65L4,10.29H4"/><polyline id="SVGID-4" data-name="SVGID" class="cls-7" points="8.78 11.31 8.78 9.12 10.52 9.12 10.52 9.63 9.34 9.63 9.34 9.97 10.49 9.97 10.49 10.47 9.34 10.47 9.34 10.84 10.52 10.84 10.52 11.31 8.78 11.31"/><polyline id="SVGID-5" data-name="SVGID" class="cls-8" points="13.1 11.32 13.1 9.12 13.66 9.12 13.66 11.32 13.1 11.32"/><path id="SVGID-6" data-name="SVGID" class="cls-9" d="M14.43,15v-.42a.36.36,0,0,0-.37-.34h-.54V15H13V12.84h1.35a.61.61,0,0,1,.71.64.55.55,0,0,1-.32.51.55.55,0,0,1,.27.5V15h-.54m-.91-1.27h.57c.17,0,.31-.1.31-.21s-.14-.21-.31-.21h-.57v.42h0"/><path id="SVGID-7" data-name="SVGID" class="cls-10" d="M10.72,15h-.49l-.59-.65L9.05,15H7v-2.2H9l.64.7.64-.69h1.78a.62.62,0,0,1,.71.65c0,.64-.24.85-1,.85h-.54V15h-.55M10,14l.69.77V13.19L10,14h0m-2.48.61H8.71L9.26,14l-.55-.6H7.54v.34H8.68v.49H7.54v.38h0m3.73-.81h.57c.17,0,.31-.09.31-.2s-.14-.21-.31-.21h-.57v.41h0"/><path id="SVGID-8" data-name="SVGID" class="cls-11" d="M18.23,15h-1v-.51h.86s.32,0,.32-.17-.48-.18-.48-.18-.76.06-.76-.66a.64.64,0,0,1,.69-.67h1.07v.51h-.86s-.3-.06-.3.16.41.15.41.15.85-.06.85.6a.7.7,0,0,1-.75.77h-.06"/><polyline id="SVGID-9" data-name="SVGID" class="cls-12" points="15.25 15.03 15.25 12.84 16.98 12.84 16.98 13.35 15.81 13.35 15.81 13.69 16.95 13.69 16.95 14.18 15.81 14.18 15.81 14.56 16.98 14.56 16.98 15.03 15.25 15.03"/><path id="SVGID-10" data-name="SVGID" class="cls-13" d="M20.19,15h-1v-.51h.86s.32,0,.32-.17-.47-.18-.47-.18-.77.06-.77-.66a.64.64,0,0,1,.69-.67H20.9v.51H20s-.3-.06-.3.16.41.15.41.15.85-.06.85.6a.69.69,0,0,1-.74.77h-.07"/></symbol></defs><title>card-american</title><use width="24" height="24" xlink:href="#card-american-express"/></svg>