<svg xmlns="http://www.w3.org/2000/svg" width="39.5" height="31" viewBox="0 0 39.5 31">
  <g id="ic-drop-files" transform="translate(-6983 -5186)">
    <g id="ic-dropfiles" transform="translate(0 8)">
      <g id="Rectangle_3926" data-name="Rectangle 3926" transform="translate(6990 5179)" fill="none" stroke="#909598" stroke-width="2">
        <rect width="18" height="5" rx="2" stroke="none"/>
        <rect x="1" y="1" width="16" height="3" rx="1" fill="none"/>
      </g>
      <g id="Rectangle_3925" data-name="Rectangle 3925" transform="translate(6987 5182)" fill="none" stroke="#909598" stroke-width="2">
        <rect width="24" height="5" rx="2" stroke="none"/>
        <rect x="1" y="1" width="22" height="3" rx="1" fill="none"/>
      </g>
      <g id="Rectangle_3924" data-name="Rectangle 3924" transform="translate(6985 5187)" fill="none" stroke="#909598" stroke-width="2">
        <rect width="28" height="20" rx="2" stroke="none"/>
        <rect x="-1" y="-1" width="30" height="22" rx="3" fill="none"/>
      </g>
      <g id="Polygon_1" data-name="Polygon 1" transform="translate(7006 5190) rotate(90)" fill="none" opacity="0.5">
        <path d="M6.136,1.481a1,1,0,0,1,1.728,0L13.123,10.5a1,1,0,0,1-.864,1.5H1.741a1,1,0,0,1-.864-1.5Z" stroke="none"/>
        <path d="M 7 3.969263076782227 L 3.482069969177246 10 L 10.51792240142822 10 L 7 3.969263076782227 M 6.999998569488525 0.9846343994140625 C 7.335418701171875 0.9846343994140625 7.670838356018066 1.150010108947754 7.863778591156006 1.480759620666504 L 13.1227388381958 10.49612998962402 C 13.51161861419678 11.16279029846191 13.03074836730957 12 12.25895881652832 12 L 1.74103832244873 12 C 0.9692487716674805 12 0.4883785247802734 11.16279029846191 0.87725830078125 10.49612998962402 L 6.136218547821045 1.480759620666504 C 6.329158782958984 1.150010108947754 6.664578437805176 0.9846343994140625 6.999998569488525 0.9846343994140625 Z" stroke="none" fill="#222b32"/>
      </g>
    </g>
    <rect id="Rectangle_3927" data-name="Rectangle 3927" width="2" height="9" rx="1" transform="translate(7017 5186)" fill="#909598"/>
    <rect id="Rectangle_3928" data-name="Rectangle 3928" width="2" height="9" rx="1" transform="translate(7022.5 5189.5) rotate(90)" fill="#909598"/>
  </g>
</svg>
