<svg version="1" xmlns="http://www.w3.org/2000/svg" width="682.667" height="682.667" viewBox="0 0 512.000000 512.000000"><path d="M87.3 65c-6.2 1.4-14.1 6.1-18.6 10.9-9.2 9.8-6.9-.3-39.2 177.9C13.3 343.4 0 418.5 0 420.6c0 6.9 2.9 13.4 8.5 19 9.2 9.3-11.8 8.5 216 8.2l201-.3 6.6-3.2c7.6-3.7 14.5-10.6 18.3-18.2 2.2-4.3 7.3-30.7 32.1-167.9C498.7 168.6 512 93.5 512 91.4c0-6.9-2.9-13.4-8.4-19-9.3-9.2 11.6-8.4-214-8.3-109.5.1-200.5.4-202.3.9zm43.1 33.2c1.8 3 58.2 313.8 57.3 316.1-.6 1.5-2.5 1.7-17 1.7-12.9 0-16.7-.3-17.6-1.4-.7-.8-3.1-11.8-5.5-24.4-2.3-12.7-4.8-23.8-5.5-24.6-1.2-1.4-5.1-1.6-28.5-1.6-20.4 0-27.7.3-29 1.3-1.3.9-2.7 6.8-5.7 23.7-2.2 12.4-4.7 23.5-5.5 24.7-1.4 2.2-1.9 2.3-17.9 2.3-16.2 0-16.5 0-17-2.3-.3-1.2 12.3-72.6 27.9-158.7C89.3 129.5 95.3 98.3 96.6 97.3c1.3-.9 6.3-1.3 17.1-1.3 14.7 0 15.3.1 16.7 2.2zm57 0c.9 1.3 9.2 45.3 19.6 102.8 10 55.3 18.6 100.9 19.1 101.4.6.6 1.2.6 1.8 0 .5-.5 9.3-46.5 19.5-102.2 10.1-55.7 19-102 19.7-102.8.9-1.1 4.5-1.4 17.6-1.4 14.4 0 16.4.2 17 1.7.6 1.4-53.1 300.9-55.8 311.5-1.7 6.6-2.3 6.8-19.4 6.8-15 0-15.5-.1-16.8-2.3-1.8-2.8-58.2-313.9-57.4-316.1.6-1.4 2.8-1.6 17.1-1.6 16.1 0 16.6.1 18 2.2zm168.9-1c1.3 1 5.7 23.4 20.3 103.3 10.2 56.1 19 102.4 19.5 102.9.6.6 1.2.6 1.8 0 .5-.5 9.1-46.4 19.1-101.9 10.1-55.6 18.9-102 19.7-103.3 1.3-2.1 1.8-2.2 18.9-2.2 14.9 0 17.6.2 18.1 1.6.8 2-56.2 315.1-57.7 317-1 1.1-4.4 1.4-16.6 1.4-17.1 0-17.7-.2-18.9-6.7-.4-2.1-8.7-48.1-18.5-102.2s-18.3-98.8-18.9-99.4c-.7-.7-1.3-.3-1.9 1.4-.5 1.3-9.1 47.6-19.1 102.9-12.6 69.1-18.8 101-19.8 102.2-1.4 1.6-3.7 1.8-18.4 1.8-15 0-16.9-.2-17.7-1.8-1.3-2.4 55.3-314 57.5-316.5 1.4-1.5 3.6-1.7 16.3-1.7 10.1 0 15.1.4 16.3 1.2z"/><path d="M111.5 210.2c-.3.7-5 26.5-10.5 57.2-7.4 41.7-9.7 56.3-8.9 57.3.9 1 5.6 1.3 20.4 1.3 10.7 0 20-.3 20.9-.6.9-.3 1.6-1.6 1.6-2.7 0-2.7-19.9-111.8-20.6-112.9-.8-1.2-2.4-1-2.9.4z"/></svg>