<svg id="Layer_1" data-name="Layer 1" xmlns="http://www.w3.org/2000/svg" xmlns:xlink="http://www.w3.org/1999/xlink" viewBox="0 0 24 24"><defs><style>.cls-1{fill:none;}.cls-2{fill:#fff;}.cls-3{fill:#0098d0;}.cls-4{fill:#0097d9;}.cls-5{fill:#e40520;}.cls-6{fill:#06326e;}</style><symbol id="card-maestro" data-name="card-maestro" viewBox="0 0 24 24"><rect class="cls-1" width="24" height="24"/><rect class="cls-2" x="0.5" y="4.5" width="23" height="15" rx="1.5" ry="1.5"/><path class="cls-3" d="M22,5a1,1,0,0,1,1,1V18a1,1,0,0,1-1,1H2a1,1,0,0,1-1-1V6A1,1,0,0,1,2,5H22m0-1H2A2,2,0,0,0,0,6V18a2,2,0,0,0,2,2H22a2,2,0,0,0,2-2V6a2,2,0,0,0-2-2Z"/><path class="cls-4" d="M12.06,16.17A5.47,5.47,0,1,0,8.4,17.58a5.42,5.42,0,0,0,3.66-1.41Z"/><path class="cls-4" d="M12.06,16.17a5.47,5.47,0,0,0,0-8.11v8.11Z"/><path class="cls-5" d="M15.74,6.65a5.47,5.47,0,0,0-3.68,1.41,7.41,7.41,0,0,0-.54.58h1.1c.15.18.29.39.42.58H11.1a6.55,6.55,0,0,0-.32.58h2.57a4.12,4.12,0,0,1,.23.58h-3c-.06.19-.11.38-.16.58h3.36a6.34,6.34,0,0,1,.11,1.16,5.6,5.6,0,0,1-.27,1.74h-3c.07.19.14.38.23.57h2.57A5.33,5.33,0,0,1,13,15H11.1a5.06,5.06,0,0,0,.42.58h1.1a5.09,5.09,0,0,1-.56.58,5.47,5.47,0,1,0,3.68-9.52Z"/><polygon class="cls-6" points="7.54 13.64 6.86 13.64 7.27 11.51 6.33 13.64 5.76 13.64 5.64 11.52 5.19 13.64 4.57 13.64 5.09 10.87 6.17 10.87 6.18 12.58 6.93 10.87 8.08 10.87 7.54 13.64"/><path class="cls-6" d="M15.15,13.61a1.85,1.85,0,0,1-.49.08c-.35,0-.54-.18-.54-.5a1.36,1.36,0,0,1,0-.2l0-.23,0-.17.31-1.72h.67l-.09.51h.34l-.09.55H15l-.18.94s0,.08,0,.1.07.16.23.16a.44.44,0,0,0,.18,0l-.08.5Z"/><path class="cls-6" d="M12.45,12.1c0,.28.16.48.51.62s.34.15.34.26-.13.2-.4.2a2.27,2.27,0,0,1-.62-.09l-.1.52h0l.13,0,.18,0,.38,0c.73,0,1.06-.23,1.06-.75a.63.63,0,0,0-.48-.63c-.29-.1-.32-.14-.32-.24s.11-.19.33-.19a5,5,0,0,1,.5,0l.1-.52a4.42,4.42,0,0,0-.61-.05c-.77,0-1,.35-1,.77Z"/><path class="cls-6" d="M9.75,13.64H9.18v-.23a.91.91,0,0,1-.71.26.58.58,0,0,1-.62-.61c0-.54.43-.86,1.19-.86h.28a.49.49,0,0,0,0-.14c0-.15-.11-.22-.43-.22a3,3,0,0,0-.56.07l-.1,0H8.2l.09-.5a2.75,2.75,0,0,1,.82-.13c.59,0,.9.23.9.66a1.68,1.68,0,0,1-.07.45l-.14.8,0,.15,0,.11v.14Zm-.46-1a.5.5,0,0,0-.16,0c-.39,0-.58.12-.58.35s.1.22.25.22a.51.51,0,0,0,.49-.55Z"/><path class="cls-6" d="M12,13.59a2.69,2.69,0,0,1-.7.1c-.76,0-1.15-.36-1.15-1a1.23,1.23,0,0,1,1.18-1.34.82.82,0,0,1,.93.81,2.15,2.15,0,0,1-.09.56H10.8a.23.23,0,0,0,0,.07c0,.26.2.4.6.4A1.65,1.65,0,0,0,12.1,13l-.12.57Zm-.32-1.34v-.12a.28.28,0,0,0-.32-.29.45.45,0,0,0-.44.41Z"/><path class="cls-6" d="M19.24,12.61a1.2,1.2,0,0,1-1.32,1.09,1,1,0,0,1-1.08-1,1.26,1.26,0,0,1,1.34-1.34,1,1,0,0,1,1.08,1,1.18,1.18,0,0,1,0,.27Zm-.69-.26c0-.24-.09-.46-.37-.46s-.57.41-.57.77.15.51.4.51a.66.66,0,0,0,.52-.56,2,2,0,0,0,0-.26Z"/><path class="cls-2" d="M19.31,13.3a.18.18,0,0,1,.19-.17.17.17,0,0,1,.17.17.18.18,0,0,1-.17.18.19.19,0,0,1-.19-.18Zm.19.14a.13.13,0,0,0,.12-.14.12.12,0,0,0-.12-.13.13.13,0,0,0-.14.13.14.14,0,0,0,.14.14Zm0-.07h0v-.15h.07s0,0,0,0l0,0s0,0,0,0l0,.06h0l0,0h0v0Zm0-.08h.05v0h-.05v0Z"/><polygon class="cls-2" points="7.72 13.48 7.03 13.48 7.44 11.35 6.51 13.48 5.88 13.48 5.78 11.36 5.37 13.48 4.75 13.48 5.28 10.71 6.34 10.71 6.4 12.42 7.15 10.71 8.25 10.71 7.72 13.48"/><path class="cls-2" d="M15.32,13.45a1.81,1.81,0,0,1-.49.07c-.35,0-.54-.17-.54-.49a1.5,1.5,0,0,1,0-.2l0-.23,0-.17.31-1.72h.67l-.09.51h.35l-.1.55h-.35l-.17.94a.58.58,0,0,0,0,.1c0,.11.07.17.23.17l.19,0-.09.49Z"/><path class="cls-6" d="M17.07,11.88l0-.08.13-.35H17c-.22,0-.38.09-.6.36l.08-.41h-.71l-.42,2.26H16c.09-.52.14-.81.19-1.06.09-.41.39-.59.61-.54h.08l0,0,.11-.19Z"/><path class="cls-2" d="M17.3,11.24l-.07,0s-.06,0-.06,0H17.1a.71.71,0,0,0-.59.36l.06-.34H16l-.42,2.26h.69c.25-1.38.34-1.63.67-1.63H17l.07,0,.25-.65Z"/><path class="cls-2" d="M12.62,11.94c0,.28.16.48.53.62s.32.15.32.26-.13.2-.4.2a2,2,0,0,1-.62-.1l-.09.53h0l.11,0h.19a2.91,2.91,0,0,0,.38,0c.72,0,1.06-.23,1.06-.75,0-.31-.14-.49-.49-.63s-.32-.14-.32-.24.12-.19.34-.19a3,3,0,0,1,.49,0l.1-.52a4.31,4.31,0,0,0-.6,0c-.77,0-1,.34-1,.76Z"/><path class="cls-2" d="M9.92,13.48H9.37v-.23a1,1,0,0,1-.72.26A.58.58,0,0,1,8,12.9c0-.54.44-.86,1.2-.86h.28a.49.49,0,0,0,0-.14c0-.15-.12-.21-.44-.21a3,3,0,0,0-.56.06l-.1,0H8.38l.1-.5a2.89,2.89,0,0,1,.81-.12c.59,0,.89.22.89.65a2.48,2.48,0,0,1,0,.45l-.14.81,0,.13,0,.12v.14Zm-.49-1H9.28c-.39,0-.58.12-.58.35a.22.22,0,0,0,.24.23.52.52,0,0,0,.49-.57Z"/><path class="cls-2" d="M12.16,13.43a2.8,2.8,0,0,1-.7.09c-.76,0-1.15-.35-1.15-1a1.23,1.23,0,0,1,1.19-1.34.81.81,0,0,1,.91.81,2.09,2.09,0,0,1-.08.56H11v.07c0,.26.19.4.59.4a1.76,1.76,0,0,0,.71-.14l-.11.56Zm-.36-1.34V12a.28.28,0,0,0-.32-.29c-.22,0-.37.15-.43.41Z"/><path class="cls-2" d="M19.42,12.45a1.21,1.21,0,0,1-1.33,1.09,1,1,0,0,1-1.07-1,1.26,1.26,0,0,1,1.34-1.34,1,1,0,0,1,1.08,1,1.23,1.23,0,0,1,0,.27Zm-.71-.29c0-.23-.09-.45-.37-.45s-.56.41-.56.78.15.5.39.5a.65.65,0,0,0,.52-.55,1.23,1.23,0,0,0,0-.28Z"/></symbol></defs><title>card-maestro</title><use width="24" height="24" xlink:href="#card-maestro"/></svg>