<svg id="Layer_1" data-name="Layer 1" xmlns="http://www.w3.org/2000/svg" xmlns:xlink="http://www.w3.org/1999/xlink" viewBox="0 0 24 24"><defs><style>.cls-1{fill:none;}.cls-2{fill:#fff;}.cls-3{fill:#005098;}.cls-4{fill:#f6a500;}</style><symbol id="card-visa" data-name="card-visa" viewBox="0 0 24 24"><rect class="cls-1" width="24" height="24"/><rect class="cls-2" x="0.5" y="4.5" width="23" height="15" rx="1.5" ry="1.5"/><path class="cls-3" d="M22,5a1,1,0,0,1,1,1V18a1,1,0,0,1-1,1H2a1,1,0,0,1-1-1V6A1,1,0,0,1,2,5H22m0-1H2A2,2,0,0,0,0,6V18a2,2,0,0,0,2,2H22a2,2,0,0,0,2-2V6a2,2,0,0,0-2-2Z"/><polygon class="cls-3" points="9.22 14.69 10.13 9.33 11.59 9.33 10.68 14.69 9.22 14.69"/><path class="cls-3" d="M16,9.46a3.79,3.79,0,0,0-1.31-.22c-1.45,0-2.46.73-2.47,1.77,0,.77.72,1.2,1.28,1.45s.76.43.76.67-.46.52-.88.52A3.06,3.06,0,0,1,12,13.37l-.19-.08-.21,1.2a4.47,4.47,0,0,0,1.63.28c1.54,0,2.53-.72,2.55-1.83,0-.61-.39-1.07-1.23-1.46-.51-.24-.83-.41-.82-.66s.26-.46.84-.46a2.65,2.65,0,0,1,1.09.2l.13.07L16,9.46Z"/><path class="cls-3" d="M19.73,9.34H18.6a.73.73,0,0,0-.77.44l-2.17,4.91H17.2l.3-.8h1.87c.05.19.18.8.18.8h1.36L19.73,9.34Zm-1.81,3.45.59-1.5s.12-.31.19-.51l.1.46.34,1.55Z"/><path class="cls-3" d="M8,9.34,6.56,13l-.15-.74a4.18,4.18,0,0,0-2-2.25l1.31,4.69H7.24l2.3-5.35Z"/><path class="cls-4" d="M5.23,9.33H2.88l0,.11a4.87,4.87,0,0,1,3.55,2.81L5.9,9.78a.63.63,0,0,0-.67-.45Z"/></symbol></defs><title>card-visa</title><use width="24" height="24" xlink:href="#card-visa"/></svg>