<svg id="Layer_1" data-name="Layer 1" xmlns="http://www.w3.org/2000/svg" xmlns:xlink="http://www.w3.org/1999/xlink" viewBox="0 0 24 24"><defs><style>.cls-1{fill:none;}.cls-2{fill:#fff;}.cls-3{fill:#e30613;}.cls-4{fill:#fab31e;}.cls-5{fill:#e40520;}.cls-6{fill:#06326e;}</style><symbol id="card-mastercard" data-name="card-mastercard" viewBox="0 0 24 24"><rect class="cls-1" width="24" height="24"/><rect class="cls-2" x="0.5" y="4.5" width="23" height="15" rx="1.5" ry="1.5"/><path class="cls-3" d="M22,5a1,1,0,0,1,1,1V18a1,1,0,0,1-1,1H2a1,1,0,0,1-1-1V6A1,1,0,0,1,2,5H22m0-1H2A2,2,0,0,0,0,6V18a2,2,0,0,0,2,2H22a2,2,0,0,0,2-2V6a2,2,0,0,0-2-2Z"/><path class="cls-4" d="M12,16.17A5.41,5.41,0,0,0,15.7,17.6a5.51,5.51,0,0,0,0-11A5.41,5.41,0,0,0,12,8a5.5,5.5,0,0,0,0,8.16Z"/><path class="cls-5" d="M13.8,11.51c0-.2-.06-.39-.1-.59H10.36a3.8,3.8,0,0,1,.15-.58h3c-.06-.19-.14-.39-.22-.58H10.74c.1-.2.2-.4.32-.59H13a6.13,6.13,0,0,0-.42-.58H11.47A6.11,6.11,0,0,1,12,8,5.5,5.5,0,1,0,8.35,17.6,5.42,5.42,0,0,0,12,16.17h0a5,5,0,0,0,.55-.58H11.47a5,5,0,0,1-.41-.58H13a5.54,5.54,0,0,0,.32-.59H10.74a5.83,5.83,0,0,1-.23-.58h3a3.53,3.53,0,0,0,.16-.58,5.58,5.58,0,0,0,.1-.59,5.49,5.49,0,0,0,0-.58,5.63,5.63,0,0,0,0-.58Z"/><path class="cls-2" d="M20.45,13.37a.18.18,0,0,1,.17-.18.18.18,0,0,1,0,.36.18.18,0,0,1-.17-.18Zm.17.13a.13.13,0,0,0,.14-.13.13.13,0,0,0-.14-.13.13.13,0,0,0-.13.13.13.13,0,0,0,.13.13Zm0-.05h0V13.3h.11s0,0,0,0a.05.05,0,0,1,0,0l0,.07h-.05l0-.06h0v0h0s0,0,0,0h0v.13Z"/><path class="cls-6" d="M10.17,13.68a1.71,1.71,0,0,1-.45.08c-.28,0-.45-.18-.45-.5a1.65,1.65,0,0,1,0-.21l0-.22,0-.18.26-1.55h.57l-.07.34h.36l-.09.57H10l-.15.93a.34.34,0,0,0,0,.09c0,.12.06.17.2.17l.18,0-.07.5Z"/><path class="cls-6" d="M12,13.66a2.13,2.13,0,0,1-.6.09.91.91,0,0,1-1-1c0-.79.44-1.36,1-1.36a.76.76,0,0,1,.8.83,2.51,2.51,0,0,1-.07.56H11a.2.2,0,0,0,0,.07c0,.27.18.4.52.4a1.51,1.51,0,0,0,.62-.14l-.1.56Zm-.35-1.35V12.2a.26.26,0,0,0-.28-.29c-.19,0-.32.14-.38.4Z"/><polygon class="cls-6" points="5.63 13.71 5.04 13.71 5.38 11.56 4.61 13.71 4.21 13.71 4.16 11.57 3.8 13.71 3.22 13.71 3.69 10.92 4.55 10.92 4.57 12.64 5.14 10.92 6.09 10.92 5.63 13.71"/><path class="cls-6" d="M7.05,12.7H6.94c-.34,0-.51.13-.51.34a.22.22,0,0,0,.22.24c.28,0,.39-.24.4-.57Zm.48,1H7v-.23a.71.71,0,0,1-.63.27.58.58,0,0,1-.53-.62,1,1,0,0,1,0-.3c.09-.35.44-.57,1-.57h.27a.44.44,0,0,0,0-.15c0-.15-.13-.2-.4-.2A1.48,1.48,0,0,0,6.3,12l-.09,0h0l.09-.51A2.08,2.08,0,0,1,7,11.38c.51,0,.79.24.79.68a2.92,2.92,0,0,1,0,.44l-.14.81v.4Z"/><path class="cls-6" d="M14.86,11.46a1.19,1.19,0,0,1,.53.15l.1-.6L15.34,11l-.23-.07a1.23,1.23,0,0,0-.28,0,1.12,1.12,0,0,0-.64.11,1.44,1.44,0,0,0-.35.3l-.08,0-.6.43,0-.24h-.62l-.37,2.27h.6L13,12.49s.09-.17.13-.23a.34.34,0,0,1,.33-.14h0a3,3,0,0,0,0,.44,1.06,1.06,0,0,0,1.06,1.2,1.83,1.83,0,0,0,.52-.08l.1-.64a1.12,1.12,0,0,1-.5.15c-.35,0-.56-.26-.56-.68,0-.61.31-1,.76-1Z"/><path class="cls-6" d="M19.88,10.92l-.13.8a.61.61,0,0,0-.54-.33.89.89,0,0,0-.78.52h0l-.38-.23,0-.24h-.64l-.36,2.27h.59l.2-1.22s.15-.17.19-.23a.38.38,0,0,1,.26-.14,2,2,0,0,0-.1.67c0,.57.29,1,.73,1a.71.71,0,0,0,.54-.25l0,.22H20l.46-2.79Zm-.73,2.25c-.19,0-.3-.15-.3-.44,0-.45.19-.77.47-.77s.31.16.31.45c0,.45-.19.76-.48.76Z"/><path class="cls-6" d="M16.42,12.7h-.11c-.34,0-.51.13-.51.34a.21.21,0,0,0,.21.24c.29,0,.4-.24.41-.57Zm.47,1h-.52l0-.23a.68.68,0,0,1-.62.27.57.57,0,0,1-.55-.62c0-.54.41-.87,1-.87h.25a.49.49,0,0,0,0-.15c0-.15-.12-.2-.4-.2a1.64,1.64,0,0,0-.5.08l-.07,0h0l.09-.51a2.08,2.08,0,0,1,.69-.13c.51,0,.77.24.77.68a1.51,1.51,0,0,1,0,.44l-.12.81,0,.15,0,.11v.14Z"/><path class="cls-6" d="M8.77,11.92a2.64,2.64,0,0,1,.44,0l.09-.53c-.17,0-.4,0-.53,0-.67,0-.88.36-.88.78a.66.66,0,0,0,.44.63c.24.11.28.13.28.23s-.13.23-.35.23a1.51,1.51,0,0,1-.54-.1l-.07.52h0l.11,0,.15,0,.35,0c.66,0,.93-.26.93-.76a.64.64,0,0,0-.44-.63c-.26-.11-.29-.13-.29-.24s.12-.2.3-.2Z"/><path class="cls-2" d="M15.65,10.83l-.1.6a1.19,1.19,0,0,0-.53-.15c-.44,0-.76.44-.76,1.05,0,.43.21.68.56.68a1.23,1.23,0,0,0,.5-.14l-.1.63a1.89,1.89,0,0,1-.52.09c-.64,0-1-.46-1-1.21,0-1,.55-1.7,1.33-1.7a1.14,1.14,0,0,1,.28,0l.23.06.15.06Z"/><path class="cls-2" d="M13.74,11.24h-.05c-.2,0-.32.1-.5.37l.06-.35h-.54l-.37,2.27h.6c.22-1.39.27-1.62.56-1.62h0a2.65,2.65,0,0,1,.23-.66Z"/><path class="cls-2" d="M10.32,13.5a1.2,1.2,0,0,1-.43.08.44.44,0,0,1-.47-.5,1.5,1.5,0,0,1,0-.2l0-.23,0-.18.26-1.55h.59l-.07.34h.3l-.07.56H10.2l-.16.95a.28.28,0,0,0,0,.09c0,.11.06.16.2.16a.34.34,0,0,0,.16,0l-.07.5Z"/><path class="cls-2" d="M8,12a.66.66,0,0,0,.44.63c.25.12.29.16.29.25s-.11.21-.34.21A1.69,1.69,0,0,1,7.9,13l-.09.52h0l.1,0,.16,0a2.19,2.19,0,0,0,.33,0c.62,0,.91-.24.91-.76a.62.62,0,0,0-.41-.63c-.26-.11-.29-.14-.29-.25s.11-.18.3-.18l.42,0,.09-.52a3.26,3.26,0,0,0-.52,0c-.66,0-.9.35-.89.77Z"/><path class="cls-2" d="M20.19,13.53h-.56l0-.22a.71.71,0,0,1-.55.25c-.44,0-.72-.37-.72-.94,0-.75.44-1.4,1-1.4a.68.68,0,0,1,.57.32l.13-.8h.59l-.45,2.79ZM19.32,13c.27,0,.46-.32.46-.76s-.11-.45-.31-.45-.47.31-.47.76c0,.3.11.45.32.45Z"/><path class="cls-2" d="M12.13,13.49a2,2,0,0,1-.61.09.9.9,0,0,1-1-1c0-.78.43-1.35,1-1.35a.76.76,0,0,1,.8.82,2.66,2.66,0,0,1-.07.57H11.1a.13.13,0,0,0,0,.06c0,.27.18.4.52.4a1.37,1.37,0,0,0,.62-.14l-.1.57Zm-.33-1.36V12a.26.26,0,0,0-.28-.29c-.19,0-.32.14-.38.4Z"/><polygon class="cls-2" points="5.78 13.53 5.19 13.53 5.53 11.38 4.76 13.53 4.36 13.53 4.31 11.4 3.95 13.53 3.4 13.53 3.87 10.74 4.72 10.74 4.75 12.47 5.31 10.74 6.24 10.74 5.78 13.53"/><path class="cls-2" d="M7.24,12.52H7.11c-.33,0-.5.12-.5.35a.21.21,0,0,0,.21.23c.24,0,.41-.23.42-.57Zm.44,1H7.19V13.3a.75.75,0,0,1-.63.27A.55.55,0,0,1,6,13c0-.56.38-.88,1-.88h.25a.42.42,0,0,0,0-.14c0-.15-.11-.21-.38-.21a1.83,1.83,0,0,0-.49.06l-.09,0h0l.08-.51a2.24,2.24,0,0,1,.71-.12c.51,0,.79.23.79.67a2.66,2.66,0,0,1,0,.45l-.13.81,0,.14v.25Z"/><path class="cls-2" d="M16.61,12.52h-.13c-.34,0-.51.12-.51.35a.21.21,0,0,0,.21.23c.24,0,.42-.23.43-.57Zm.43,1h-.49V13.3a.73.73,0,0,1-.62.27A.55.55,0,0,1,15.4,13c0-.56.38-.88,1-.88h.24a1.15,1.15,0,0,0,0-.14c0-.15-.1-.21-.37-.21a2,2,0,0,0-.51.06l-.07,0h-.06l.09-.51a2.24,2.24,0,0,1,.71-.12c.51,0,.77.23.77.67a1.89,1.89,0,0,1-.05.45l-.12.81,0,.14,0,.11v.14Z"/><path class="cls-2" d="M18.63,11.24h-.05c-.2,0-.32.1-.49.37l.05-.35H17.6l-.36,2.27h.59c.22-1.39.27-1.62.56-1.62h0a2.31,2.31,0,0,1,.22-.66Z"/></symbol></defs><title>card-mastercard</title><use width="24" height="24" xlink:href="#card-mastercard"/></svg>