<svg xmlns="http://www.w3.org/2000/svg" viewBox="0 0 420 420"><defs><style>.cls-1{opacity:0.08;}.cls-2{fill:none;stroke:#222b32;}</style></defs><title>globe</title><g id="Layer_2" data-name="Layer 2"><g id="Layer_1-2" data-name="Layer 1"><g id="layer1" class="cls-1"><g id="g27338"><g id="g27340"><path id="path27342" class="cls-2" d="M106.52,392.15c-5.75-3.27,35.92-87.46,93.07-188.06S307.74,24.59,313.48,27.85h0"/><path id="path27344" class="cls-2" d="M79.66,374c-24.15-19.19,14.63-108.17,86.61-198.76S316.19,26.8,340.34,46h0"/><path id="path27346" class="cls-2" d="M53.22,349c-35.14-39.65,6.57-134,93.16-210.75S331.64,31.39,366.78,71h0"/><path id="path27348" class="cls-2" d="M27.29,312.48c-35-62.37,18.49-158.81,119.4-215.41s211.05-51.92,246,10.45h0"/><path id="path27350" class="cls-2" d="M6,257.43C-13.29,174.47,62.45,86,175.14,59.79S394.78,79.62,414,162.57h0"/><path id="path27352" class="cls-2" d="M2.89,178.8c13.9-92,117.88-152.58,232.27-135.35S431,149.22,417.11,241.2h0"/><path id="path27354" class="cls-2" d="M36.89,92.15C90.11,14,210.75,3.42,306.36,68.5s130,181.21,76.75,259.35"/><path id="path27356" class="cls-2" d="M99.9,31.86C176.12-15.27,287.2,26.29,348,124.67S396.32,341,320.1,388.14"/><path id="path27358" class="cls-2" d="M162.65,6C239.18-11.8,322.41,65.12,348.56,177.79S333.88,396.23,257.35,414"/><path id="path27360" class="cls-2" d="M213,.56c62.16.86,111.23,95.32,109.6,211S269.2,420.29,207,419.44"/><path id="path27362" class="cls-2" d="M252.41,4.87c40.68,8.39,54.67,107,31.25,220.33S208.27,423.53,167.59,415.13"/><path id="path27364" class="cls-2" d="M284.89,14.36c16.89,6.46-2.95,99.29-44.31,207.33S152,412.1,135.11,405.64"/></g><g id="g27366"><path id="path27368" class="cls-2" d="M144.27,408.9A211.85,211.85,0,0,1,85.9,378.78"/><path id="path27370" class="cls-2" d="M221,419.16c-66.26,3.51-149.81-39-186.63-95-.43-.65-.86-1.31-1.27-2"/><path id="path27372" class="cls-2" d="M270.67,410.46c-63.51,19.24-162.87-14.78-221.93-76-18-18.7-30.88-38.57-37.32-57.79"/><path id="path27374" class="cls-2" d="M311.65,393.1c-58,32.22-166.56,7.36-242.43-55.53C30.12,305.16,5.61,267.21,1.83,233.23"/><path id="path27376" class="cls-2" d="M346.1,369.16C295.67,412.29,183,397.1,94.35,335.22c-61-42.62-97.06-98.41-93-143.93"/><path id="path27378" class="cls-2" d="M374.33,339.81c-41.14,52.08-153.58,46.85-251.14-11.67C40.63,278.62-6.8,205.18,9,151.28"/><path id="path27380" class="cls-2" d="M396.11,306c-30.45,59-138.45,63.78-241.23,10.74S-6.55,172.94,23.89,114h0"/><path id="path27382" class="cls-2" d="M411,268.72c-18.63,63.69-118.22,78.35-222.45,32.75S15,167.27,33.59,103.58A68.77,68.77,0,0,1,45.67,80.19"/><path id="path27384" class="cls-2" d="M418.61,228.71c-5.95,66.09-93.29,90.19-195.06,53.83S44.09,163.13,50,97.05A67.34,67.34,0,0,1,73.9,50.84"/><path id="path27386" class="cls-2" d="M418.17,186.77c7.34,65.94-63.92,98.81-159.15,73.4S80.64,160.73,73.31,94.78c-3.27-29.36,9.21-53.53,35-67.88"/><path id="path27388" class="cls-2" d="M408.58,143.32c21.1,62.9-30,103.61-114.1,90.94S125.06,160.33,104,97.43C90,55.92,107.42,22.24,149.33,9.54"/><path id="path27390" class="cls-2" d="M386.91,97.79c35.52,56,10,103.42-56.93,105.84s-150-41-185.56-97.07C109.38,51.3,133.65,4.3,199,.84"/><path id="path27392" class="cls-2" d="M334.1,41.22c53.45,39.29,69.73,91.48,36.37,116.56s-103.74,13.58-157.19-25.72S143.54,40.58,176.91,15.5c21.22-16,58.74-17.63,98.82-4.4"/><path id="path27394" class="cls-2" d="M364.63,117.74c-13.82,26.77-62.85,29-109.51,4.87s-73.29-65.3-59.47-92.07,62.86-28.95,109.52-4.88S378.46,91,364.63,117.74Z"/><path id="path27396" class="cls-2" d="M342.38,94.66C333,112.88,299.6,114.37,267.84,98S218,53.53,227.36,35.31,270.14,15.6,301.9,32,351.79,76.43,342.38,94.66Z"/><path id="path27398" class="cls-2" d="M316.87,74.42c-4.77,9.22-21.66,10-37.74,1.68s-25.25-22.5-20.49-31.73,21.66-10,37.74-1.68S321.63,65.19,316.87,74.42Z"/></g><path id="path27400" class="cls-2" d="M396.11,306C343,408.84,216.68,449.18,113.9,396.15S-29.18,216.77,23.89,114,203.32-29.18,306.1,23.85,449.18,203.23,396.11,306Z"/></g></g></g></g></svg>