<svg xmlns="http://www.w3.org/2000/svg" xmlns:xlink="http://www.w3.org/1999/xlink" viewBox="0 0 60 60"><defs><style>.cls-1{fill:url(#linear-gradient);}.cls-2{fill:url(#linear-gradient-2);}</style><linearGradient id="linear-gradient" x1="44.5" x2="44.5" y2="60" gradientUnits="userSpaceOnUse"><stop offset="0" stop-color="#2196f3"/><stop offset="1" stop-color="#9466ff"/></linearGradient><linearGradient id="linear-gradient-2" x1="15.5" x2="15.5" y2="60" gradientUnits="userSpaceOnUse"><stop offset="0" stop-color="#ff4081"/><stop offset="1" stop-color="#9466ff"/></linearGradient></defs><title>loading</title><g id="Layer_2" data-name="Layer 2"><g id="Layer_1-2" data-name="Layer 1"><path class="cls-1" d="M30,60a1,1,0,0,1,0-2A28,28,0,0,0,30,2a1,1,0,0,1,0-2,30,30,0,0,1,0,60Z"/><path class="cls-2" d="M30,60A30,30,0,0,1,30,0a1,1,0,0,1,0,2,28,28,0,0,0,0,56,1,1,0,0,1,0,2Z"/></g></g></svg>